# xmcd
#
# Track frame offsets: 
#        150
#        20669
#        41328
#        56936
#        77589
#        96492
#        113314
#        129024
#        145503
#        161076
#        178861
#        201301
#        218510
#        234499
#        254038
#        275472
#        290312
#
# Disc length: 4124 seconds
#
# Revision: 1
# Processed by: cddbd v1.5.2PL0 Copyright (c) Steve Scherf et al.
# Submitted via: ExactAudioCopy v0.99pb4
#
DISCID=ef101a11
DTITLE=Various Artist - Country Heat 2008
DYEAR=2007
DGENRE=Country
TTITLE0=Kenny Chesney - Beer in Mexico
TTITLE1=Brad Paisley - Ticks
TTITLE2=Aaron Lines - Cheaper to Keep Her
TTITLE3=Carrie Underwood - Wasted
TTITLE4=Shane Yellowbird - Pickup Truck
TTITLE5=Kellie Pickler - Red High Heels
TTITLE6=Johnny Reid - Love Sweet Love
TTITLE7=Brad Johner - I'd Rather Be Lucky
TTITLE8=Damian Marshall - Not Even a Little
TTITLE9=Jake Owen - Startin' with Me
TTITLE10=Emerson Drive - Moments
TTITLE11=Jack Ingram - Lips of an Angel
TTITLE12=Big and Rich - Lost in This Moment
TTITLE13=Jason Michael Carroll - Alyssa Lies
TTITLE14=Martina McBride - Anyway
TTITLE15=Montgomery Gentry - Lucky Man
TTITLE16=Alan Jackson - A Woman's Love
EXTD=
EXTT0=
EXTT1=
EXTT2=
EXTT3=
EXTT4=
EXTT5=
EXTT6=
EXTT7=
EXTT8=
EXTT9=
EXTT10=
EXTT11=
EXTT12=
EXTT13=
EXTT14=
EXTT15=
EXTT16=
PLAYORDER=
